<?xml version="1.0" encoding="UTF-8" standalone="no"?>
<svg width="552px" height="530px" viewBox="0 0 552 530" version="1.1" xmlns="http://www.w3.org/2000/svg" xmlns:xlink="http://www.w3.org/1999/xlink" xmlns:sketch="http://www.bohemiancoding.com/sketch/ns">
    <!-- Generator: Sketch 3.3.3 (12072) - http://www.bohemiancoding.com/sketch -->
    <title>logo_metro</title>
    <desc>Created with Sketch.</desc>
    <defs></defs>
    <g id="Page-1" stroke="none" stroke-width="1" fill="none" fill-rule="evenodd" sketch:type="MSPage">
        <g id="logo_metro" sketch:type="MSLayerGroup" transform="translate(20.000000, 20.000000)" stroke="#272727" stroke-width="40">
            <g id="Grid" transform="translate(55.705829, 245.315019)" sketch:type="MSShapeGroup">
                <rect id="Rectangle-49" x="0" y="0" width="141.600006" height="141.600006"></rect>
                <rect id="Rectangle-49" x="121.083506" y="0" width="141.600006" height="141.600006"></rect>
                <rect id="Rectangle-49" x="242.167012" y="0" width="141.600006" height="141.600006"></rect>
                <rect id="Rectangle-49" x="0" y="123.083506" width="141.600006" height="141.600006"></rect>
                <rect id="Rectangle-49" x="121.630571" y="123.083506" width="141.600006" height="141.600006"></rect>
                <rect id="Rectangle-49" x="242.714077" y="123.083506" width="141.600006" height="141.600006"></rect>
            </g>
            <path d="M1.02669447,254.714498 L503.296098,254.714498 C503.296098,254.714498 532.341232,181.424827 479.805919,144.811688 C427.270605,108.198549 368.870863,124.972073 368.870863,124.972073 C368.870863,124.972073 373.737033,3.29120367e-06 240.678193,0 C107.619353,-3.29120369e-06 119.103179,109.24413 119.103179,109.24413 C119.103179,109.24413 62.4396985,102.926385 29.3458154,140.148546 C-3.74806768,177.370706 1.02669447,254.714498 1.02669447,254.714498 Z" id="Cloud" sketch:type="MSShapeGroup"></path>
        </g>
    </g>
</svg>